# xmcd CD database file generated by Grip 2.91
#
# Track frame offsets:
#       150
#       18770
#       33242              
#       51185
#       66375
#       80870
#       84417
#       100582               
#       112997
#       131512             
#
# Disc length: 2027 seconds 
#
# Revision: 3               
# Processed by: cddbd v1.4b41PL1 Copyright (c) Steve Scherf et al.
# Submitted via: Grip 2.91           
#
DISCID=7707e90a
DTITLE=Mississippi John Hurt - Coffee Blues
DYEAR=1900
DGENRE=
TTITLE0=frankie and albert
TTITLE1=talkin casey
TTITLE2=trouble i had all my day
TTITLE3=coffee blues
TTITLE4=hard time in old town tonight
TTITLE5=chicken blues      
TTITLE6=here i am, oh send me
TTITLE7=spike driver blues
TTITLE8=rich woman blues
TTITLE9=monday morning blues
EXTD=              
EXTT0=
EXTT1=           
EXTT2=
EXTT3=
EXTT4=
EXTT5=            
EXTT6=
EXTT7=
EXTT8=
EXTT9=
PLAYORDER=
